<svg height="512" viewBox="0 0 512 512" width="512" xmlns="http://www.w3.org/2000/svg" xmlns:xlink="http://www.w3.org/1999/xlink"><linearGradient id="New_Gradient_Swatch_5" gradientUnits="userSpaceOnUse" x1="156.479" x2="355.521" y1="254.01" y2="54.968"><stop offset=".011" stop-color="#f8c73f"/><stop offset="1" stop-color="#fada7f"/></linearGradient><linearGradient id="linear-gradient" gradientUnits="userSpaceOnUse" x1="259.091" x2="344.759" y1="382.743" y2="297.075"><stop offset="0" stop-color="#f7d1d1"/><stop offset="1" stop-color="#fcf0f0"/></linearGradient><linearGradient id="linear-gradient-2" x1="287.091" x2="372.759" xlink:href="#linear-gradient" y1="410.743" y2="325.075"/><linearGradient id="linear-gradient-3" x1="315.091" x2="400.759" xlink:href="#linear-gradient" y1="438.743" y2="353.075"/><linearGradient id="linear-gradient-4" x1="214.03" x2="340.157" xlink:href="#linear-gradient" y1="469" y2="342.873"/><g id="_09-rating" data-name="09-rating"><g id="gradient"><path d="m397.762 99.059a12 12 0 0 0 -9.688-8.168l-84.138-12.226-37.407-68.421a12 12 0 0 0 -21.058 0l-37.407 68.421-84.138 12.226a12 12 0 0 0 -6.651 20.469l60.658 59.125-14.32 83.487a12 12 0 0 0 17.411 12.65l74.976-39.417 74.976 39.417a12 12 0 0 0 17.411-12.65l-14.32-83.487 60.658-59.125a12 12 0 0 0 3.037-12.301z" fill="url(#New_Gradient_Swatch_5)"/><path d="m400 242.094a12 12 0 0 1 -8.48-20.49 19.945 19.945 0 0 0 0-28.229 12 12 0 1 1 16.96-16.975 43.94 43.94 0 0 1 0 62.187 11.959 11.959 0 0 1 -8.48 3.507z" fill="#90d7d1"/><path d="m433.941 276a12 12 0 0 1 -8.481-20.489 67.859 67.859 0 0 0 0-96.042 12 12 0 0 1 16.963-16.979 91.86 91.86 0 0 1 0 130 11.962 11.962 0 0 1 -8.482 3.51z" fill="#afe2de"/><path d="m112 242.094a11.957 11.957 0 0 1 -8.48-3.511 43.94 43.94 0 0 1 0-62.187 12 12 0 1 1 16.96 16.979 19.945 19.945 0 0 0 0 28.229 12 12 0 0 1 -8.48 20.49z" fill="#90d7d1"/><path d="m78.059 276a11.962 11.962 0 0 1 -8.482-3.511 91.86 91.86 0 0 1 0-130 12 12 0 0 1 16.963 16.98 67.859 67.859 0 0 0 0 96.042 12 12 0 0 1 -8.481 20.489z" fill="#afe2de"/><path d="m320 328v-16a24 24 0 0 0 -48 0v77.609h48z" fill="url(#linear-gradient)"/><path d="m368 344v-16a24 24 0 0 0 -48 0v61.609h48z" fill="url(#linear-gradient-2)"/><path d="m416 344a24 24 0 0 0 -48 0v45.609h48z" fill="url(#linear-gradient-3)"/><path d="m272 352v-127.46c0-13.455-11.011-24.791-24.464-24.536a24 24 0 0 0 -23.536 23.996v211.769c-10.885-14.967-21.493-29.212-29.714-39.55-19.549-24.581-44.888-19.663-58.413-14.448a8 8 0 0 0 -3.433 12.373l91.56 117.856h192v-136z" fill="url(#linear-gradient-4)"/></g></g></svg>